<?xml version="1.0" encoding="utf-8"?>
<!-- Generator: Adobe Illustrator 27.1.0, SVG Export Plug-In . SVG Version: 6.00 Build 0)  -->
<svg version="1.1" id="Capa_1" xmlns="http://www.w3.org/2000/svg" xmlns:xlink="http://www.w3.org/1999/xlink" x="0px" y="0px"
	 viewBox="0 0 24 24" style="enable-background:new 0 0 24 24;" xml:space="preserve">
<style type="text/css">
	.st0{fill:#212121;}
</style>
<g>
	<path class="st0" d="M13.5,6h1.9c1.7,0,3,1.3,3,3v4.6H20V9c0-2.5-2-4.5-4.5-4.5h-1.9l1-1c0.3-0.3,0.3-0.8,0-1.1
		c-0.3-0.3-0.8-0.3-1.1,0l-2.2,2.2c-0.3,0.3-0.3,0.8,0,1.1L13.4,8c0.3,0.3,0.8,0.3,1.1,0c0.3-0.3,0.3-0.8,0-1.1L13.5,6z"/>
	<path class="st0" d="M11.2,16c-0.3-0.3-0.8-0.3-1.1,0c-0.3,0.3-0.3,0.8,0,1.1l1,1H8.5c-1.7,0-3-1.3-3-3v-4.6H4V15
		c0,2.5,2,4.5,4.5,4.5h2.7l-1,1c-0.3,0.3-0.3,0.8,0,1.1c0.3,0.3,0.8,0.3,1.1,0l2.2-2.2c0.3-0.3,0.3-0.8,0-1.1L11.2,16z"/>
</g>
<path class="st0" d="M4.6,2.2c-1,0-1.9,0.8-1.9,1.9v2.7c0,1,0.8,1.9,1.9,1.9h2.7c1,0,1.9-0.8,1.9-1.9V4.1c0-1-0.8-1.9-1.9-1.9H4.6z"
	/>
<path class="st0" d="M20.1,15.3h-2.7c-1,0-1.9,0.8-1.9,1.9v2.7c0,1,0.8,1.9,1.9,1.9h2.7c1,0,1.9-0.8,1.9-1.9v-2.7
	C22,16.1,21.1,15.3,20.1,15.3z M20.3,19.9c0,0.1-0.1,0.3-0.3,0.3h-2.7c-0.1,0-0.3-0.1-0.3-0.3v-2.7c0-0.1,0.1-0.3,0.3-0.3h2.7
	c0.1,0,0.3,0.1,0.3,0.3V19.9z"/>
</svg>
