<?xml version="1.0" encoding="utf-8"?>
<!-- Generator: Adobe Illustrator 27.1.0, SVG Export Plug-In . SVG Version: 6.00 Build 0)  -->
<svg version="1.1" id="Capa_1" xmlns="http://www.w3.org/2000/svg" xmlns:xlink="http://www.w3.org/1999/xlink" x="0px" y="0px"
	 viewBox="0 0 24 24" style="enable-background:new 0 0 24 24;" xml:space="preserve">
<style type="text/css">
	.st0{fill:#212121;}
</style>
<g>
	<path class="st0" d="M12.5,7.1C12.4,7,12.2,6.9,12,6.9S11.6,7,11.5,7.1L9.3,9.6c-0.2,0.3-0.2,0.7,0.1,0.9c0.3,0.2,0.7,0.2,0.9-0.1
		l1.1-1.2v4.6c0,0.3,0.3,0.6,0.6,0.6c0.3,0,0.6-0.3,0.6-0.6V9.2l1.1,1.2c0.2,0.3,0.6,0.3,0.9,0.1c0.3-0.2,0.3-0.6,0.1-0.9L12.5,7.1z
		"/>
	<path class="st0" d="M19.2,4H4.8C3.2,4,2,5.2,2,6.7v10.5C2,18.8,3.2,20,4.8,20h14.5c1.5,0,2.8-1.2,2.8-2.7V6.7
		C22,5.2,20.8,4,19.2,4z M20.5,13.6h-6.6v1.5h6.6v2.1c0,0.7-0.6,1.2-1.2,1.2H9.5H8H6.3H4.8c-0.7,0-1.2-0.6-1.2-1.2v-2.1h6.6v-1.5
		H3.5V6.7c0-0.7,0.6-1.2,1.2-1.2h1.6H8h1.5h9.8c0.7,0,1.2,0.6,1.2,1.2V13.6z"/>
</g>
</svg>
