<?xml version="1.0" encoding="utf-8"?>
<!-- Generator: Adobe Illustrator 27.1.0, SVG Export Plug-In . SVG Version: 6.00 Build 0)  -->
<svg version="1.1" id="Capa_1" xmlns="http://www.w3.org/2000/svg" xmlns:xlink="http://www.w3.org/1999/xlink" x="0px" y="0px"
	 viewBox="0 0 24 24" style="enable-background:new 0 0 24 24;" xml:space="preserve">
<style type="text/css">
	.st0{fill:#212121;}
</style>
<g>
	<path class="st0" d="M9.4,10.8c-0.3,0.2-0.3,0.6-0.1,0.9l2.2,2.5c0.1,0.1,0.3,0.2,0.5,0.2s0.4-0.1,0.5-0.2l2.2-2.5
		c0.2-0.3,0.2-0.7-0.1-0.9c-0.3-0.2-0.7-0.2-0.9,0.1l-1.1,1.2V7.6c0-0.3-0.3-0.6-0.6-0.6c-0.3,0-0.6,0.3-0.6,0.6v4.6l-1.1-1.2
		C10.1,10.6,9.7,10.6,9.4,10.8z"/>
	<path class="st0" d="M19.2,4H4.8C3.2,4,2,5.2,2,6.7v10.5C2,18.8,3.2,20,4.8,20h14.5c1.5,0,2.8-1.2,2.8-2.7V6.7
		C22,5.2,20.8,4,19.2,4z M19.2,18.5H9.5H8H6.3H4.8c-0.7,0-1.2-0.6-1.2-1.2v-2.1h6.6v-1.5H3.5V6.7c0-0.7,0.6-1.2,1.2-1.2h1.6H8h1.5
		h9.8c0.7,0,1.2,0.6,1.2,1.2v6.9h-6.6v1.5h6.6v2.1C20.5,17.9,19.9,18.5,19.2,18.5z"/>
</g>
</svg>
