<?xml version="1.0" encoding="utf-8"?>
<!-- Generator: Adobe Illustrator 27.1.0, SVG Export Plug-In . SVG Version: 6.00 Build 0)  -->
<svg version="1.1" id="Capa_1" xmlns="http://www.w3.org/2000/svg" xmlns:xlink="http://www.w3.org/1999/xlink" x="0px" y="0px"
	 viewBox="0 0 24 24" style="enable-background:new 0 0 24 24;" xml:space="preserve">
<style type="text/css">
	.st0{fill:#212121;}
</style>
<path class="st0" d="M11,2.9c0.1-0.4-0.2-0.8-0.6-0.9C10,1.9,9.6,2.2,9.5,2.6L8.5,8L3.7,8C3.3,8,3,8.3,3,8.8c0,0.4,0.3,0.7,0.8,0.7
	l4.5,0l-0.9,5l-4.5,0c-0.4,0-0.7,0.3-0.7,0.8S2.3,16,2.8,16L7,16l-1,5.1c-0.1,0.4,0.2,0.8,0.6,0.9c0.4,0.1,0.8-0.2,0.9-0.6l1-5.4
	l2.7,0c0.1-0.5,0.3-1,0.6-1.5l-2.9,0l0.9-5l5.5,0l-0.4,2.1c0.5-0.2,1.1-0.4,1.6-0.5l0.3-1.6l4.5,0c0.4,0,0.7-0.3,0.7-0.8
	C22,8.3,21.7,8,21.2,8L17,8l1-5.1c0.1-0.4-0.2-0.8-0.6-0.9c-0.4-0.1-0.8,0.2-0.9,0.6l-1,5.4L10,8L11,2.9z"/>
<path class="st0" d="M17.5,12c-3,0-5.5,2.5-5.5,5.5s2.5,5.5,5.5,5.5s5.5-2.5,5.5-5.5S20.5,12,17.5,12z M21,19.5
	c0,0.3-0.2,0.5-0.5,0.5S20,19.8,20,19.5v-0.2c0-1.2-1-2.2-2.2-2.2h-2l0.6,0.6c0.2,0.2,0.2,0.5,0,0.7s-0.5,0.2-0.7,0l-1.5-1.5
	c-0.2-0.2-0.2-0.5,0-0.7l1.5-1.5c0.2-0.2,0.5-0.2,0.7,0s0.2,0.5,0,0.7L15.7,16h2c1.8,0,3.2,1.5,3.2,3.2V19.5z"/>
</svg>
