<?xml version="1.0" encoding="utf-8"?>
<!-- Generator: Adobe Illustrator 27.1.0, SVG Export Plug-In . SVG Version: 6.00 Build 0)  -->
<svg version="1.1" id="Capa_1" xmlns="http://www.w3.org/2000/svg" xmlns:xlink="http://www.w3.org/1999/xlink" x="0px" y="0px"
	 viewBox="0 0 24 24" style="enable-background:new 0 0 24 24;" xml:space="preserve">
<style type="text/css">
	.st0{fill:#212121;}
</style>
<path class="st0" d="M3.2,7.7C2.9,8,2.9,8.5,3.2,8.8c0.3,0.3,0.8,0.3,1.1,0l3.2-3.2v7.7c0,2.3,1.9,4.2,4.2,4.2h7.7l-3.2,3.2
	c-0.3,0.3-0.3,0.8,0,1.1c0.3,0.3,0.8,0.3,1.1,0l4.5-4.5c0.3-0.3,0.3-0.8,0-1.1l-4.5-4.5c-0.3-0.3-0.8-0.3-1.1,0
	c-0.3,0.3-0.3,0.8,0,1.1l3.2,3.2h-7.7C10.2,16,9,14.8,9,13.2V5.6l3.2,3.2c0.3,0.3,0.8,0.3,1.1,0c0.3-0.3,0.3-0.8,0-1.1L8.8,3.2
	C8.6,3.1,8.4,3,8.2,3C8.1,3,7.9,3.1,7.7,3.2L3.2,7.7z"/>
</svg>
