<?xml version="1.0" encoding="utf-8"?>
<!-- Generator: Adobe Illustrator 27.1.0, SVG Export Plug-In . SVG Version: 6.00 Build 0)  -->
<svg version="1.1" id="Capa_1" xmlns="http://www.w3.org/2000/svg" xmlns:xlink="http://www.w3.org/1999/xlink" x="0px" y="0px"
	 viewBox="0 0 24 24" style="enable-background:new 0 0 24 24;" xml:space="preserve">
<style type="text/css">
	.st0{fill:#212121;}
</style>
<path class="st0" d="M11.7,3.3C10.6,2.5,9,3.3,9,4.8v14.5c0,1.4,1.6,2.2,2.7,1.4l10.5-7.3c1-0.7,1-2.2,0-2.9L11.7,3.3z M10.5,4.8
	c0-0.2,0.2-0.3,0.4-0.2l10.5,7.2c0.1,0.1,0.1,0.3,0,0.4l-10.5,7.3c-0.2,0.1-0.4,0-0.4-0.2V4.8z"/>
<path class="st0" d="M6,9H3.5c-1,0-1.8,0.8-1.8,1.8v2.5c0,1,0.8,1.8,1.8,1.8H6c1,0,1.8-0.8,1.8-1.8v-2.5C7.8,9.8,7,9,6,9z M6.2,13.2
	c0,0.1-0.1,0.2-0.2,0.2H3.5c-0.1,0-0.2-0.1-0.2-0.2v-2.5c0-0.1,0.1-0.2,0.2-0.2H6c0.1,0,0.2,0.1,0.2,0.2V13.2z"/>
</svg>
