<?xml version="1.0" encoding="utf-8"?>
<!-- Generator: Adobe Illustrator 27.1.0, SVG Export Plug-In . SVG Version: 6.00 Build 0)  -->
<svg version="1.1" id="Capa_1" xmlns="http://www.w3.org/2000/svg" xmlns:xlink="http://www.w3.org/1999/xlink" x="0px" y="0px"
	 viewBox="0 0 24 24" style="enable-background:new 0 0 24 24;" xml:space="preserve">
<style type="text/css">
	.st0{fill:#212121;}
</style>
<path class="st0" d="M12.3,3.3c1.2-0.8,2.7,0,2.7,1.4v14.5c0,1.4-1.6,2.2-2.7,1.4L1.8,13.4c-1-0.7-1-2.2,0-2.9L12.3,3.3z M13.5,4.8
	c0-0.2-0.2-0.3-0.4-0.2L2.6,11.7c-0.1,0.1-0.1,0.3,0,0.4l10.5,7.3c0.2,0.1,0.4,0,0.4-0.2V4.8z"/>
<path class="st0" d="M20.5,9H18c-1,0-1.8,0.8-1.8,1.8v2.5c0,1,0.8,1.8,1.8,1.8h2.5c1,0,1.8-0.8,1.8-1.8v-2.5C22.3,9.8,21.5,9,20.5,9
	z M20.8,13.3c0,0.1-0.1,0.2-0.2,0.2H18c-0.1,0-0.2-0.1-0.2-0.2v-2.5c0-0.1,0.1-0.2,0.2-0.2h2.5c0.1,0,0.2,0.1,0.2,0.2V13.3z"/>
</svg>
