<?xml version="1.0" encoding="utf-8"?>
<!-- Generator: Adobe Illustrator 27.1.0, SVG Export Plug-In . SVG Version: 6.00 Build 0)  -->
<svg version="1.1" id="Capa_1" xmlns="http://www.w3.org/2000/svg" xmlns:xlink="http://www.w3.org/1999/xlink" x="0px" y="0px"
	 viewBox="0 0 24 24" style="enable-background:new 0 0 24 24;" xml:space="preserve">
<style type="text/css">
	.st0{fill:#212121;}
</style>
<g>
	<path class="st0" d="M20.5,19.5l-4.9-4.9c1-1.2,1.6-2.8,1.6-4.6c0-4-3.2-7.2-7.2-7.2S2.8,6,2.8,10S6,17.2,10,17.2
		c1.7,0,3.3-0.6,4.6-1.6l4.9,4.9l0.1,0.1c0.3,0.2,0.7,0.2,1-0.1C20.8,20.2,20.8,19.8,20.5,19.5z M10,15.8c-3.2,0-5.8-2.6-5.8-5.8
		c0-3.2,2.6-5.8,5.8-5.8c3.2,0,5.8,2.6,5.8,5.8C15.8,13.2,13.2,15.8,10,15.8z"/>
</g>
</svg>
